#!OML:ASF F:\VICON\USERDATA\INSTALL\rory3\rory3.ASF
:FULLY-SPECIFIED
:DEGREES
3710
root -1.42085 17.8868 0.538725 11.3117 -24.0074 9.01772
lowerback 7.60591 -5.32345 -9.22664
upperback 5.77776 -8.14345 13.8369
thorax 5.2108 -5.3315 21.1915
lowerneck -23.5983 3.53363 -12.6978
upperneck 24.6611 9.16237 1.62657
head 11.3301 3.09364 4.11904
rclavicle -3.65764e-014 -9.85972e-014
rhumerus 11.9506 25.561 -50.8563
rradius 63.7598
rwrist -42.5609
rhand 0.984596 -15.3197
rfingers 7.12502
rthumb 26.5331 -43.4815
lclavicle -3.65764e-014 -9.85972e-014
lhumerus 45.0298 -47.4609 78.5932
lradius 28.6108
lwrist -37.3136
lhand -48.5529 45.0027
lfingers 7.12502
lthumb -21.1996 -286.137
rfemur -36.2636 13.6333 2.892
rtibia 35.5234
rfoot -10.1687 3.39038
rtoes 4.91215
lfemur -15.0366 13.6664 -23.8443
ltibia 21.135
lfoot -5.33502 24.9199
ltoes -24.2354
3711
root -1.41015 17.8809 0.540878 11.3344 -23.8175 9.0095
lowerback 7.48767 -5.41083 -8.17229
upperback 5.66608 -8.14735 12.8837
thorax 5.26365 -5.23562 19.6894
lowerneck -23.5021 4.49627 -11.2694
upperneck 23.8704 9.85664 1.88052
head 10.989 3.64222 4.04783
rclavicle 2.54444e-014 -2.8625e-014
rhumerus 10.7342 24.5467 -52.8234
rradius 64.1599
rwrist -40.4337
rhand -1.00673 -14.431
rfingers 7.12502
rthumb 24.6258 -42.8668
lclavicle 2.54444e-014 -2.8625e-014
lhumerus 44.353 -47.8833 77.8777
lradius 29.0259
lwrist -35.2482
lhand -47.7334 43.5988
lfingers 7.12502
lthumb -20.4122 -287.454
rfemur -36.2458 13.4449 2.91132
rtibia 35.5594
rfoot -10.2254 3.34146
rtoes 4.73678
lfemur -15.0071 13.528 -23.8661
ltibia 20.9313
lfoot -5.22304 24.99
ltoes -24.2372
3712
root -1.40003 17.8776 0.540929 11.3827 -23.5661 9.00053
lowerback 7.09285 -5.65075 -6.76459
upperback 5.81556 -8.32287 11.839
thorax 5.24434 -5.14445 17.3116
lowerneck -23.2108 5.58497 -9.68243
upperneck 22.85 10.5462 2.47538
head 10.5267 4.25739 4.04653
rclavicle -4.77083e-015 -1.33583e-013
rhumerus 9.42709 23.423 -55.5452
rradius 64.4634
rwrist -38.0888
rhand -2.63293 -13.6522
rfingers 7.12502
rthumb 23.0662 -42.2917
lclavicle -4.77083e-015 -1.33583e-013
lhumerus 43.2453 -48.2138 77.0062
lradius 29.3868
lwrist -33.3146
lhand -46.9361 41.7851
lfingers 7.12502
lthumb -19.6458 -289.188
rfemur -36.2287 13.2553 2.94017
rtibia 35.5754
rfoot -10.2347 3.26478
rtoes 4.43416
lfemur -14.9942 13.386 -23.8894
ltibia 20.7142
lfoot -5.22227 24.9828
ltoes -24.0189
3713
root -1.38863 17.8826 0.54526 11.3567 -23.314 9.01022
lowerback 6.63992 -5.90755 -4.97493
upperback 6.0427 -8.50288 10.4851
thorax 5.21095 -5.02336 14.4219
lowerneck -22.6209 6.64712 -8.11665
upperneck 21.4112 11.1071 3.37177
head 9.86727 4.85919 4.08917
rclavicle -3.81667e-014 2.70347e-014
rhumerus 7.93175 22.0743 -58.7178
rradius 64.8079
rwrist -35.5409
rhand -4.1321 -12.6674
rfingers 7.12502
rthumb 21.6271 -41.4796
lclavicle -3.81667e-014 2.70347e-014
lhumerus 42.1513 -48.6202 75.7927
lradius 29.7446
lwrist -31.1942
lhand -45.7175 39.4466
lfingers 7.12502
lthumb -18.474 -291.411
rfemur -36.1166 13.0758 2.94631
rtibia 35.5733
rfoot -10.2521 3.21427
rtoes 4.64943
lfemur -14.8808 13.1891 -23.9258
ltibia 20.5442
lfoot -5.38462 25.0525
ltoes -23.5337
3714
root -1.37852 17.8835 0.550226 11.2951 -23.0757 8.99765
lowerback 6.17627 -6.03135 -2.97613
upperback 6.29973 -8.50729 8.94004
thorax 5.10135 -4.80299 11.3421
lowerneck -22.2588 7.58964 -6.32608
upperneck 20.1883 11.4914 4.32385
head 9.37314 5.36036 4.10657
rclavicle -7.79236e-014 -1.59028e-015
rhumerus 6.2551 20.2951 -62.0322
rradius 65.0738
rwrist -32.605
rhand -5.84982 -11.5376
rfingers 7.12502
rthumb 19.9767 -40.5308
lclavicle -7.79236e-014 -1.59028e-015
lhumerus 41.4085 -49.4691 74.0432
lradius 30.2743
lwrist -28.7348
lhand -44.328 36.9836
lfingers 7.12502
lthumb -17.1369 -293.752
rfemur -35.9572 12.9062 2.99826
rtibia 35.5744
rfoot -10.3602 3.15917
rtoes 4.37462
lfemur -14.7266 13.0532 -23.9394
ltibia 20.3962
lfoot -5.64253 25.1031
ltoes -23.2658
3715
root -1.36894 17.8824 0.554656 11.2905 -22.862 8.97333
lowerback 5.73493 -6.08614 -1.18794
upperback 6.47342 -8.45552 7.54356
thorax 4.96831 -4.59249 8.69585
lowerneck -21.9156 8.49018 -4.73083
upperneck 19.0348 11.9858 5.03812
head 8.92589 5.8395 4.08467
rclavicle -1.39944e-013 7.63333e-014
rhumerus 4.72534 18.5403 -64.8043
rradius 65.3774
rwrist -29.6956
rhand -7.14101 -10.5971
rfingers 7.12502
rthumb 18.7352 -39.7149
lclavicle -1.39944e-013 7.63333e-014
lhumerus 40.605 -50.2208 72.6637
lradius 30.932
lwrist -26.0012
lhand -42.7741 34.5182
lfingers 7.12502
lthumb -15.6408 -296.094
rfemur -35.8647 12.7768 3.03188
rtibia 35.5839
rfoot -10.5054 3.04407
rtoes 3.80662
lfemur -14.6627 12.8812 -23.9353
ltibia 20.2498
lfoot -5.80611 25.1715
ltoes -22.8468
3716
root -1.35893 17.8791 0.55878 11.2834 -22.6549 8.98949
lowerback 5.44417 -6.02508 0.0251189
upperback 6.57672 -8.2989 6.56944
thorax 4.85346 -4.39638 6.92809
lowerneck -21.6139 9.27699 -3.65159
upperneck 17.8413 12.5818 5.51308
head 8.46542 6.28507 4.06686
rclavicle -7.95139e-015 6.36111e-015
rhumerus 3.52061 16.9865 -66.5551
rradius 65.7198
rwrist -27.0984
rhand -8.55497 -9.83536
rfingers 7.12502
rthumb 17.3748 -39.0788
lclavicle -7.95139e-015 6.36111e-015
lhumerus 39.7023 -50.7061 72.1848
lradius 31.5355
lwrist -23.4637
lhand -41.1892 33.4582
lfingers 7.12502
lthumb -14.114 -297.041
rfemur -35.7959 12.6282 3.01371
rtibia 35.6189
rfoot -10.5755 3.00324
rtoes 3.86896
lfemur -14.6499 12.8108 -23.9994
ltibia 20.1262
lfoot -5.66873 25.1981
ltoes -23.0685
3717
root -1.34741 17.8756 0.562991 11.2509 -22.4138 8.98016
lowerback 5.34419 -5.85347 0.393322
upperback 6.61136 -8.05209 6.32514
thorax 4.81794 -4.2407 6.45332
lowerneck -21.2283 9.8915 -3.22675
upperneck 16.4522 13.2807 5.47239
head 7.92431 6.67497 3.96752
rclavicle -1.28812e-013 1.11319e-013
rhumerus 2.70934 15.8952 -66.8726
rradius 66.1477
rwrist -25.117
rhand -10.0874 -9.34587
rfingers 7.12502
rthumb 15.8995 -38.7132
lclavicle -1.28812e-013 1.11319e-013
lhumerus 38.5212 -50.6042 73.1768
lradius 31.964
lwrist -21.7447
lhand -39.65 33.3896
lfingers 7.12502
lthumb -12.6304 -297.012
rfemur -35.6802 12.4343 3.04405
rtibia 35.6646
rfoot -10.6796 2.99529
rtoes 3.99526
lfemur -14.5991 12.7556 -24.0453
ltibia 20.0615
lfoot -5.53745 25.1238
ltoes -23.3182
3718
root -1.33376 17.8731 0.568444 11.188 -22.0802 8.94437
lowerback 5.4406 -5.67322 -0.0088459
upperback 6.48027 -7.83143 6.78446
thorax 4.73035 -4.16874 7.18658
lowerneck -20.6384 10.3365 -3.72575
upperneck 15.0954 14.0611 5.25837
head 7.31312 7.03377 3.93508
rclavicle 4.13472e-014 -1.04958e-013
rhumerus 2.13603 15.4718 -65.9181
rradius 66.5666
rwrist -23.5805
rhand -11.5794 -9.03878
rfingers 7.12502
rthumb 14.4623 -38.5148
lclavicle 4.13472e-014 -1.04958e-013
lhumerus 37.0202 -50.0377 75.3681
lradius 32.3646
lwrist -20.4121
lhand -38.3014 33.3761
lfingers 7.12502
lthumb -11.3299 -296.95
rfemur -35.4793 12.2562 3.10307
rtibia 35.6594
rfoot -10.7446 2.92582
rtoes 4.05978
lfemur -14.5572 12.6007 -24.0285
ltibia 20.0886
lfoot -5.67009 25.0659
ltoes -23.1859
3719
root -1.31987 17.8695 0.570928 11.2139 -21.5433 8.85273
lowerback 5.42133 -5.60996 0.0498852
upperback 6.38832 -7.74422 6.93577
thorax 4.64725 -4.12473 7.3194
lowerneck -20.1397 10.8639 -3.77237
upperneck 13.7294 14.7947 5.11182
head 6.75193 7.40551 3.85552
rclavicle 5.24792e-014 6.36111e-015
rhumerus 1.59323 14.8555 -65.574
rradius 66.8444
rwrist -22.2381
rhand -12.8297 -8.86922
rfingers 7.12502
rthumb 13.2574 -38.4276
lclavicle 5.24792e-014 6.36111e-015
lhumerus 35.7736 -49.7226 76.6498
lradius 32.8535
lwrist -19.0228
lhand -37.2033 33.122
lfingers 7.12502
lthumb -10.2708 -297.149
rfemur -35.2611 11.9206 3.23831
rtibia 35.6203
rfoot -10.8096 2.79923
rtoes 4.02021
lfemur -14.6298 12.3591 -23.9585
ltibia 20.1279
lfoot -5.78331 24.9874
ltoes -23.2205
3720
root -1.31 17.8731 0.576113 11.4508 -20.8279 8.45879
lowerback 5.35672 -5.52763 0.331008
upperback 6.22216 -7.62678 7.22759
thorax 4.49765 -4.05777 7.47795
lowerneck -19.7646 11.3456 -3.73796
upperneck 12.4827 15.4558 4.89
head 6.27311 7.73708 3.74622
rclavicle -4.77083e-014 4.92986e-014
rhumerus 0.885756 14.2156 -65.1005
rradius 67.1916
rwrist -21.2428
rhand -14.1436 -8.87126
rfingers 7.12502
rthumb 11.9907 -38.5078
lclavicle -4.77083e-014 4.92986e-014
lhumerus 33.9221 -49.1703 78.7909
lradius 33.3209
lwrist -18.4886
lhand -36.1363 32.8766
lfingers 7.12502
lthumb -9.24137 -297.346
rfemur -35.046 11.5333 3.68867
rtibia 35.5487
rfoot -10.9951 2.55395
rtoes 3.86035
lfemur -14.7834 12.0995 -23.5939
ltibia 20.1431
lfoot -5.74942 24.831
ltoes -23.4122
3721
root -1.30206 17.8762 0.583341 11.469 -20.2525 8.29586
lowerback 5.49893 -5.39449 0.241194
upperback 6.0039 -7.43886 7.53712
thorax 4.22011 -3.97234 7.88904
lowerneck -19.3948 11.7586 -3.78375
upperneck 11.4082 16.0567 4.58141
head 5.86087 8.02592 3.62383
rclavicle 9.38264e-014 -3.65764e-014
rhumerus 0.123417 13.6837 -64.4725
rradius 67.5197
rwrist -20.2703
rhand -15.5148 -9.06948
rfingers 7.12502
rthumb 10.6682 -38.7786
lclavicle 9.38264e-014 -3.65764e-014
lhumerus 31.97 -48.4894 81.079
lradius 33.7763
lwrist -18.3618
lhand -34.8566 32.3595
lfingers 7.12502
lthumb -8.00634 -297.812
rfemur -34.7206 11.1905 3.92985
rtibia 35.4855
rfoot -11.1495 2.43986
rtoes 3.85106
lfemur -14.7806 11.9858 -23.4432
ltibia 20.1787
lfoot -5.78025 24.6337
ltoes -23.3593
3722
root -1.29129 17.8754 0.592199 11.4071 -19.8857 8.28548
lowerback 5.49735 -5.21725 0.260413
upperback 5.93291 -7.1953 7.57021
thorax 4.11198 -3.84604 7.91767
lowerneck -19.2198 12.197 -3.69651
upperneck 10.3337 16.6401 4.36939
head 5.48647 8.32088 3.52287
rclavicle 6.36111e-014 -6.99722e-014
rhumerus -0.513556 12.942 -64.158
rradius 67.7515
rwrist -19.1287
rhand -16.9962 -9.23978
rfingers 7.12502
rthumb 9.23901 -39.0174
lclavicle 6.36111e-014 -6.99722e-014
lhumerus 30.8008 -48.1193 82.1743
lradius 34.2061
lwrist -17.8446
lhand -33.8027 31.9644
lfingers 7.12502
lthumb -6.98907 -298.171
rfemur -34.4581 10.9509 3.97249
rtibia 35.4349
rfoot -11.2987 2.39434
rtoes 3.62801
lfemur -14.7467 11.9555 -23.4727
ltibia 20.2124
lfoot -5.85432 24.5447
ltoes -23.3406
